<mxfile host="app.diagrams.net" modified="2023-03-25T07:17:09.593Z" agent="Mozilla/5.0 (Macintosh; Intel Mac OS X 10_15_7) AppleWebKit/605.1.15 (KHTML, like Gecko) Version/16.3 Safari/605.1.15" etag="C0CYOH2MvjspC_mAWpQQ" version="21.1.1" type="device">
  <diagram name="Page-1" id="cVdLVNtStd4NycGYNCvB">
    <mxGraphModel dx="658" dy="446" grid="1" gridSize="10" guides="1" tooltips="1" connect="1" arrows="1" fold="1" page="1" pageScale="1" pageWidth="827" pageHeight="1169" math="0" shadow="0">
      <root>
        <mxCell id="0" />
        <mxCell id="1" parent="0" />
        <mxCell id="zyrzcdE2vxu1JpTZ-_7l-1" value="&lt;font style=&quot;font-size: 12px;&quot;&gt;PostgreSQL&lt;/font&gt;" style="shape=cylinder3;whiteSpace=wrap;html=1;boundedLbl=1;backgroundOutline=1;size=15;fontSize=9;" parent="1" vertex="1">
          <mxGeometry x="290" y="210" width="120" height="150" as="geometry" />
        </mxCell>
        <mxCell id="zyrzcdE2vxu1JpTZ-_7l-2" value="&lt;font style=&quot;font-size: 12px;&quot;&gt;Spring Boot&lt;br&gt;Hibernate &lt;br&gt;Data JPA&lt;/font&gt;" style="whiteSpace=wrap;html=1;shape=mxgraph.basic.octagon2;align=center;verticalAlign=middle;dx=15;fontSize=10;" parent="1" vertex="1">
          <mxGeometry x="520" y="230" width="120" height="120" as="geometry" />
        </mxCell>
        <mxCell id="zyrzcdE2vxu1JpTZ-_7l-3" value="" style="html=1;shadow=0;dashed=0;align=center;verticalAlign=middle;shape=mxgraph.arrows2.twoWayArrow;dy=0.65;dx=22;" parent="1" vertex="1">
          <mxGeometry x="420" y="275" width="90" height="20" as="geometry" />
        </mxCell>
        <mxCell id="zyrzcdE2vxu1JpTZ-_7l-220" value="" style="edgeStyle=orthogonalEdgeStyle;rounded=0;orthogonalLoop=1;jettySize=auto;html=1;fontSize=10;" parent="1" source="zyrzcdE2vxu1JpTZ-_7l-184" target="zyrzcdE2vxu1JpTZ-_7l-207" edge="1">
          <mxGeometry relative="1" as="geometry" />
        </mxCell>
        <mxCell id="zyrzcdE2vxu1JpTZ-_7l-184" value="" style="shape=table;startSize=0;container=1;collapsible=0;childLayout=tableLayout;fontSize=10;" parent="1" vertex="1">
          <mxGeometry x="200" y="490" width="320" height="40" as="geometry" />
        </mxCell>
        <mxCell id="zyrzcdE2vxu1JpTZ-_7l-191" value="" style="shape=tableRow;horizontal=0;startSize=0;swimlaneHead=0;swimlaneBody=0;strokeColor=inherit;top=0;left=0;bottom=0;right=0;collapsible=0;dropTarget=0;fillColor=none;points=[[0,0.5],[1,0.5]];portConstraint=eastwest;fontSize=10;" parent="zyrzcdE2vxu1JpTZ-_7l-184" vertex="1">
          <mxGeometry width="320" height="20" as="geometry" />
        </mxCell>
        <mxCell id="zyrzcdE2vxu1JpTZ-_7l-192" value="&lt;font style=&quot;font-size: 10px;&quot;&gt;chat_id[PK]&lt;/font&gt;" style="shape=partialRectangle;html=1;whiteSpace=wrap;connectable=0;strokeColor=inherit;overflow=hidden;fillColor=none;top=0;left=0;bottom=0;right=0;pointerEvents=1;fontSize=10;" parent="zyrzcdE2vxu1JpTZ-_7l-191" vertex="1">
          <mxGeometry width="60" height="20" as="geometry">
            <mxRectangle width="60" height="20" as="alternateBounds" />
          </mxGeometry>
        </mxCell>
        <mxCell id="zyrzcdE2vxu1JpTZ-_7l-193" value="&lt;span style=&quot;caret-color: rgb(0, 0, 0); color: rgb(0, 0, 0); font-family: Helvetica; font-size: 10px; font-style: normal; font-variant-caps: normal; font-weight: 400; letter-spacing: normal; text-align: center; text-indent: 0px; text-transform: none; word-spacing: 0px; -webkit-text-stroke-width: 0px; background-color: rgb(251, 251, 251); text-decoration: none; float: none; display: inline !important;&quot;&gt;first_name&lt;/span&gt;" style="shape=partialRectangle;html=1;whiteSpace=wrap;connectable=0;strokeColor=inherit;overflow=hidden;fillColor=none;top=0;left=0;bottom=0;right=0;pointerEvents=1;fontSize=10;" parent="zyrzcdE2vxu1JpTZ-_7l-191" vertex="1">
          <mxGeometry x="60" width="60" height="20" as="geometry">
            <mxRectangle width="60" height="20" as="alternateBounds" />
          </mxGeometry>
        </mxCell>
        <mxCell id="zyrzcdE2vxu1JpTZ-_7l-194" value="&lt;font style=&quot;font-size: 10px;&quot;&gt;last_name&lt;/font&gt;" style="shape=partialRectangle;html=1;whiteSpace=wrap;connectable=0;strokeColor=inherit;overflow=hidden;fillColor=none;top=0;left=0;bottom=0;right=0;pointerEvents=1;fontSize=10;" parent="zyrzcdE2vxu1JpTZ-_7l-191" vertex="1">
          <mxGeometry x="120" width="63" height="20" as="geometry">
            <mxRectangle width="63" height="20" as="alternateBounds" />
          </mxGeometry>
        </mxCell>
        <mxCell id="zyrzcdE2vxu1JpTZ-_7l-195" value="&lt;font style=&quot;font-size: 10px;&quot;&gt;registered_at&lt;/font&gt;" style="shape=partialRectangle;html=1;whiteSpace=wrap;connectable=0;strokeColor=inherit;overflow=hidden;fillColor=none;top=0;left=0;bottom=0;right=0;pointerEvents=1;fontSize=10;" parent="zyrzcdE2vxu1JpTZ-_7l-191" vertex="1">
          <mxGeometry x="183" width="73" height="20" as="geometry">
            <mxRectangle width="73" height="20" as="alternateBounds" />
          </mxGeometry>
        </mxCell>
        <mxCell id="zyrzcdE2vxu1JpTZ-_7l-196" value="&lt;font style=&quot;font-size: 10px;&quot;&gt;user_name&lt;/font&gt;" style="shape=partialRectangle;html=1;whiteSpace=wrap;connectable=0;strokeColor=inherit;overflow=hidden;fillColor=none;top=0;left=0;bottom=0;right=0;pointerEvents=1;fontSize=10;" parent="zyrzcdE2vxu1JpTZ-_7l-191" vertex="1">
          <mxGeometry x="256" width="64" height="20" as="geometry">
            <mxRectangle width="64" height="20" as="alternateBounds" />
          </mxGeometry>
        </mxCell>
        <mxCell id="zyrzcdE2vxu1JpTZ-_7l-185" value="" style="shape=tableRow;horizontal=0;startSize=0;swimlaneHead=0;swimlaneBody=0;strokeColor=inherit;top=0;left=0;bottom=0;right=0;collapsible=0;dropTarget=0;fillColor=none;points=[[0,0.5],[1,0.5]];portConstraint=eastwest;fontSize=10;" parent="zyrzcdE2vxu1JpTZ-_7l-184" vertex="1">
          <mxGeometry y="20" width="320" height="20" as="geometry" />
        </mxCell>
        <mxCell id="zyrzcdE2vxu1JpTZ-_7l-186" value="&lt;font style=&quot;font-size: 10px;&quot;&gt;&lt;i style=&quot;font-size: 10px;&quot;&gt;info&lt;/i&gt;&lt;/font&gt;" style="shape=partialRectangle;html=1;whiteSpace=wrap;connectable=0;strokeColor=inherit;overflow=hidden;fillColor=none;top=0;left=0;bottom=0;right=0;pointerEvents=1;fontSize=10;" parent="zyrzcdE2vxu1JpTZ-_7l-185" vertex="1">
          <mxGeometry width="60" height="20" as="geometry">
            <mxRectangle width="60" height="20" as="alternateBounds" />
          </mxGeometry>
        </mxCell>
        <mxCell id="zyrzcdE2vxu1JpTZ-_7l-187" value="&lt;i style=&quot;border-color: var(--border-color); font-size: 10px;&quot;&gt;info&lt;/i&gt;" style="shape=partialRectangle;html=1;whiteSpace=wrap;connectable=0;strokeColor=inherit;overflow=hidden;fillColor=none;top=0;left=0;bottom=0;right=0;pointerEvents=1;fontSize=10;" parent="zyrzcdE2vxu1JpTZ-_7l-185" vertex="1">
          <mxGeometry x="60" width="60" height="20" as="geometry">
            <mxRectangle width="60" height="20" as="alternateBounds" />
          </mxGeometry>
        </mxCell>
        <mxCell id="zyrzcdE2vxu1JpTZ-_7l-188" value="&lt;i style=&quot;border-color: var(--border-color); font-size: 10px;&quot;&gt;info&lt;/i&gt;" style="shape=partialRectangle;html=1;whiteSpace=wrap;connectable=0;strokeColor=inherit;overflow=hidden;fillColor=none;top=0;left=0;bottom=0;right=0;pointerEvents=1;fontSize=10;" parent="zyrzcdE2vxu1JpTZ-_7l-185" vertex="1">
          <mxGeometry x="120" width="63" height="20" as="geometry">
            <mxRectangle width="63" height="20" as="alternateBounds" />
          </mxGeometry>
        </mxCell>
        <mxCell id="zyrzcdE2vxu1JpTZ-_7l-189" value="&lt;i style=&quot;border-color: var(--border-color); font-size: 10px;&quot;&gt;info&lt;/i&gt;" style="shape=partialRectangle;html=1;whiteSpace=wrap;connectable=0;strokeColor=inherit;overflow=hidden;fillColor=none;top=0;left=0;bottom=0;right=0;pointerEvents=1;fontSize=10;" parent="zyrzcdE2vxu1JpTZ-_7l-185" vertex="1">
          <mxGeometry x="183" width="73" height="20" as="geometry">
            <mxRectangle width="73" height="20" as="alternateBounds" />
          </mxGeometry>
        </mxCell>
        <mxCell id="zyrzcdE2vxu1JpTZ-_7l-190" value="&lt;i style=&quot;border-color: var(--border-color); font-size: 10px;&quot;&gt;info&lt;/i&gt;" style="shape=partialRectangle;html=1;whiteSpace=wrap;connectable=0;strokeColor=inherit;overflow=hidden;fillColor=none;top=0;left=0;bottom=0;right=0;pointerEvents=1;fontSize=10;" parent="zyrzcdE2vxu1JpTZ-_7l-185" vertex="1">
          <mxGeometry x="256" width="64" height="20" as="geometry">
            <mxRectangle width="64" height="20" as="alternateBounds" />
          </mxGeometry>
        </mxCell>
        <mxCell id="zyrzcdE2vxu1JpTZ-_7l-197" value="user_data_table" style="whiteSpace=wrap;html=1;fontSize=10;" parent="1" vertex="1">
          <mxGeometry x="200" y="470" width="320" height="20" as="geometry" />
        </mxCell>
        <mxCell id="zyrzcdE2vxu1JpTZ-_7l-201" style="edgeStyle=orthogonalEdgeStyle;rounded=0;orthogonalLoop=1;jettySize=auto;html=1;exitX=0.5;exitY=1;exitDx=0;exitDy=0;fontSize=10;" parent="1" source="zyrzcdE2vxu1JpTZ-_7l-197" target="zyrzcdE2vxu1JpTZ-_7l-197" edge="1">
          <mxGeometry relative="1" as="geometry" />
        </mxCell>
        <mxCell id="zyrzcdE2vxu1JpTZ-_7l-202" value="&lt;font style=&quot;font-size: 10px;&quot;&gt;1&lt;/font&gt;" style="whiteSpace=wrap;html=1;startSize=0;fontSize=10;" parent="1" vertex="1">
          <mxGeometry x="170" y="510" width="30" height="20" as="geometry" />
        </mxCell>
        <mxCell id="zyrzcdE2vxu1JpTZ-_7l-204" value="&lt;font style=&quot;font-size: 10px;&quot;&gt;2&lt;/font&gt;" style="whiteSpace=wrap;html=1;startSize=0;fontSize=10;" parent="1" vertex="1">
          <mxGeometry x="170" y="530" width="30" height="20" as="geometry" />
        </mxCell>
        <mxCell id="zyrzcdE2vxu1JpTZ-_7l-206" value="&lt;font style=&quot;font-size: 10px;&quot;&gt;3&lt;/font&gt;" style="whiteSpace=wrap;html=1;startSize=0;fontSize=10;" parent="1" vertex="1">
          <mxGeometry x="170" y="550" width="30" height="20" as="geometry" />
        </mxCell>
        <mxCell id="zyrzcdE2vxu1JpTZ-_7l-207" value="" style="shape=table;startSize=0;container=1;collapsible=0;childLayout=tableLayout;fontSize=10;" parent="1" vertex="1">
          <mxGeometry x="200" y="530" width="320" height="40" as="geometry" />
        </mxCell>
        <mxCell id="zyrzcdE2vxu1JpTZ-_7l-208" value="" style="shape=tableRow;horizontal=0;startSize=0;swimlaneHead=0;swimlaneBody=0;strokeColor=inherit;top=0;left=0;bottom=0;right=0;collapsible=0;dropTarget=0;fillColor=none;points=[[0,0.5],[1,0.5]];portConstraint=eastwest;fontSize=10;" parent="zyrzcdE2vxu1JpTZ-_7l-207" vertex="1">
          <mxGeometry width="320" height="20" as="geometry" />
        </mxCell>
        <mxCell id="zyrzcdE2vxu1JpTZ-_7l-209" value="&lt;i style=&quot;border-color: var(--border-color); font-size: 10px;&quot;&gt;info&lt;/i&gt;" style="shape=partialRectangle;html=1;whiteSpace=wrap;connectable=0;strokeColor=inherit;overflow=hidden;fillColor=none;top=0;left=0;bottom=0;right=0;pointerEvents=1;fontSize=10;" parent="zyrzcdE2vxu1JpTZ-_7l-208" vertex="1">
          <mxGeometry width="60" height="20" as="geometry">
            <mxRectangle width="60" height="20" as="alternateBounds" />
          </mxGeometry>
        </mxCell>
        <mxCell id="zyrzcdE2vxu1JpTZ-_7l-210" value="&lt;i style=&quot;border-color: var(--border-color); font-size: 10px;&quot;&gt;info&lt;/i&gt;" style="shape=partialRectangle;html=1;whiteSpace=wrap;connectable=0;strokeColor=inherit;overflow=hidden;fillColor=none;top=0;left=0;bottom=0;right=0;pointerEvents=1;fontSize=10;" parent="zyrzcdE2vxu1JpTZ-_7l-208" vertex="1">
          <mxGeometry x="60" width="60" height="20" as="geometry">
            <mxRectangle width="60" height="20" as="alternateBounds" />
          </mxGeometry>
        </mxCell>
        <mxCell id="zyrzcdE2vxu1JpTZ-_7l-211" value="&lt;i style=&quot;border-color: var(--border-color); font-size: 10px;&quot;&gt;info&lt;/i&gt;" style="shape=partialRectangle;html=1;whiteSpace=wrap;connectable=0;strokeColor=inherit;overflow=hidden;fillColor=none;top=0;left=0;bottom=0;right=0;pointerEvents=1;fontSize=10;" parent="zyrzcdE2vxu1JpTZ-_7l-208" vertex="1">
          <mxGeometry x="120" width="63" height="20" as="geometry">
            <mxRectangle width="63" height="20" as="alternateBounds" />
          </mxGeometry>
        </mxCell>
        <mxCell id="zyrzcdE2vxu1JpTZ-_7l-212" value="&lt;i style=&quot;border-color: var(--border-color); font-size: 10px;&quot;&gt;info&lt;/i&gt;" style="shape=partialRectangle;html=1;whiteSpace=wrap;connectable=0;strokeColor=inherit;overflow=hidden;fillColor=none;top=0;left=0;bottom=0;right=0;pointerEvents=1;fontSize=10;" parent="zyrzcdE2vxu1JpTZ-_7l-208" vertex="1">
          <mxGeometry x="183" width="73" height="20" as="geometry">
            <mxRectangle width="73" height="20" as="alternateBounds" />
          </mxGeometry>
        </mxCell>
        <mxCell id="zyrzcdE2vxu1JpTZ-_7l-213" value="&lt;i style=&quot;border-color: var(--border-color); caret-color: rgb(0, 0, 0); color: rgb(0, 0, 0); font-family: Helvetica; font-variant-caps: normal; font-weight: 400; letter-spacing: normal; text-align: center; text-indent: 0px; text-transform: none; word-spacing: 0px; -webkit-text-stroke-width: 0px; text-decoration: none; font-size: 10px;&quot;&gt;info&lt;/i&gt;" style="shape=partialRectangle;html=1;whiteSpace=wrap;connectable=0;strokeColor=inherit;overflow=hidden;fillColor=none;top=0;left=0;bottom=0;right=0;pointerEvents=1;fontSize=10;" parent="zyrzcdE2vxu1JpTZ-_7l-208" vertex="1">
          <mxGeometry x="256" width="64" height="20" as="geometry">
            <mxRectangle width="64" height="20" as="alternateBounds" />
          </mxGeometry>
        </mxCell>
        <mxCell id="zyrzcdE2vxu1JpTZ-_7l-214" value="" style="shape=tableRow;horizontal=0;startSize=0;swimlaneHead=0;swimlaneBody=0;strokeColor=inherit;top=0;left=0;bottom=0;right=0;collapsible=0;dropTarget=0;fillColor=none;points=[[0,0.5],[1,0.5]];portConstraint=eastwest;fontSize=10;" parent="zyrzcdE2vxu1JpTZ-_7l-207" vertex="1">
          <mxGeometry y="20" width="320" height="20" as="geometry" />
        </mxCell>
        <mxCell id="zyrzcdE2vxu1JpTZ-_7l-215" value="&lt;font style=&quot;font-size: 10px;&quot;&gt;&lt;i style=&quot;font-size: 10px;&quot;&gt;info&lt;/i&gt;&lt;/font&gt;" style="shape=partialRectangle;html=1;whiteSpace=wrap;connectable=0;strokeColor=inherit;overflow=hidden;fillColor=none;top=0;left=0;bottom=0;right=0;pointerEvents=1;fontSize=10;" parent="zyrzcdE2vxu1JpTZ-_7l-214" vertex="1">
          <mxGeometry width="60" height="20" as="geometry">
            <mxRectangle width="60" height="20" as="alternateBounds" />
          </mxGeometry>
        </mxCell>
        <mxCell id="zyrzcdE2vxu1JpTZ-_7l-216" value="&lt;i style=&quot;border-color: var(--border-color); font-size: 10px;&quot;&gt;info&lt;/i&gt;" style="shape=partialRectangle;html=1;whiteSpace=wrap;connectable=0;strokeColor=inherit;overflow=hidden;fillColor=none;top=0;left=0;bottom=0;right=0;pointerEvents=1;fontSize=10;" parent="zyrzcdE2vxu1JpTZ-_7l-214" vertex="1">
          <mxGeometry x="60" width="60" height="20" as="geometry">
            <mxRectangle width="60" height="20" as="alternateBounds" />
          </mxGeometry>
        </mxCell>
        <mxCell id="zyrzcdE2vxu1JpTZ-_7l-217" value="&lt;i style=&quot;border-color: var(--border-color); font-size: 10px;&quot;&gt;info&lt;/i&gt;" style="shape=partialRectangle;html=1;whiteSpace=wrap;connectable=0;strokeColor=inherit;overflow=hidden;fillColor=none;top=0;left=0;bottom=0;right=0;pointerEvents=1;fontSize=10;" parent="zyrzcdE2vxu1JpTZ-_7l-214" vertex="1">
          <mxGeometry x="120" width="63" height="20" as="geometry">
            <mxRectangle width="63" height="20" as="alternateBounds" />
          </mxGeometry>
        </mxCell>
        <mxCell id="zyrzcdE2vxu1JpTZ-_7l-218" value="&lt;i style=&quot;border-color: var(--border-color); font-size: 10px;&quot;&gt;info&lt;/i&gt;" style="shape=partialRectangle;html=1;whiteSpace=wrap;connectable=0;strokeColor=inherit;overflow=hidden;fillColor=none;top=0;left=0;bottom=0;right=0;pointerEvents=1;fontSize=10;" parent="zyrzcdE2vxu1JpTZ-_7l-214" vertex="1">
          <mxGeometry x="183" width="73" height="20" as="geometry">
            <mxRectangle width="73" height="20" as="alternateBounds" />
          </mxGeometry>
        </mxCell>
        <mxCell id="zyrzcdE2vxu1JpTZ-_7l-219" value="&lt;i style=&quot;border-color: var(--border-color); font-size: 10px;&quot;&gt;info&lt;/i&gt;" style="shape=partialRectangle;html=1;whiteSpace=wrap;connectable=0;strokeColor=inherit;overflow=hidden;fillColor=none;top=0;left=0;bottom=0;right=0;pointerEvents=1;fontSize=10;" parent="zyrzcdE2vxu1JpTZ-_7l-214" vertex="1">
          <mxGeometry x="256" width="64" height="20" as="geometry">
            <mxRectangle width="64" height="20" as="alternateBounds" />
          </mxGeometry>
        </mxCell>
        <mxCell id="zyrzcdE2vxu1JpTZ-_7l-239" value="&lt;font style=&quot;font-size: 12px;&quot;&gt;Telegram Bot Application&lt;/font&gt;" style="ellipse;whiteSpace=wrap;html=1;" parent="1" vertex="1">
          <mxGeometry x="750" y="250" width="120" height="80" as="geometry" />
        </mxCell>
        <mxCell id="zyrzcdE2vxu1JpTZ-_7l-240" value="&lt;font style=&quot;font-size: 10px;&quot;&gt;Telegram API&lt;/font&gt;" style="ellipse;shape=cloud;whiteSpace=wrap;html=1;" parent="1" vertex="1">
          <mxGeometry x="860" y="95" width="120" height="80" as="geometry" />
        </mxCell>
        <mxCell id="zyrzcdE2vxu1JpTZ-_7l-241" value="&lt;font style=&quot;font-size: 10px;&quot;&gt;&lt;br&gt;&lt;/font&gt;" style="ellipse;shape=cloud;whiteSpace=wrap;html=1;" parent="1" vertex="1">
          <mxGeometry x="860" y="395" width="120" height="80" as="geometry" />
        </mxCell>
        <mxCell id="zyrzcdE2vxu1JpTZ-_7l-242" value="" style="html=1;shadow=0;dashed=0;align=center;verticalAlign=middle;shape=mxgraph.arrows2.twoWayArrow;dy=0.65;dx=22;" parent="1" vertex="1">
          <mxGeometry x="650" y="280" width="90" height="20" as="geometry" />
        </mxCell>
        <mxCell id="zyrzcdE2vxu1JpTZ-_7l-244" value="" style="html=1;shadow=0;dashed=0;align=center;verticalAlign=middle;shape=mxgraph.arrows2.twoWayArrow;dy=0.65;dx=22;rotation=-60;" parent="1" vertex="1">
          <mxGeometry x="827" y="205" width="90" height="20" as="geometry" />
        </mxCell>
        <mxCell id="zyrzcdE2vxu1JpTZ-_7l-246" value="" style="html=1;shadow=0;dashed=0;align=center;verticalAlign=middle;shape=mxgraph.arrows2.twoWayArrow;dy=0.65;dx=22;rotation=-120;" parent="1" vertex="1">
          <mxGeometry x="833" y="352" width="90" height="20" as="geometry" />
        </mxCell>
        <mxCell id="zyrzcdE2vxu1JpTZ-_7l-248" value="Add new user to the Database&lt;br&gt;" style="text;html=1;strokeColor=none;fillColor=none;align=center;verticalAlign=middle;whiteSpace=wrap;rounded=0;" parent="1" vertex="1">
          <mxGeometry x="250" y="400" width="60" height="30" as="geometry" />
        </mxCell>
        <mxCell id="zyrzcdE2vxu1JpTZ-_7l-249" value="Get User&#39;s&amp;nbsp;&lt;br&gt;info from&lt;br&gt;Database" style="text;html=1;align=center;verticalAlign=middle;resizable=0;points=[];autosize=1;strokeColor=none;fillColor=none;" parent="1" vertex="1">
          <mxGeometry x="374" y="390" width="80" height="60" as="geometry" />
        </mxCell>
        <mxCell id="zyrzcdE2vxu1JpTZ-_7l-251" value="" style="shape=flexArrow;endArrow=classic;html=1;rounded=0;" parent="1" edge="1">
          <mxGeometry width="50" height="50" relative="1" as="geometry">
            <mxPoint x="370" y="460" as="sourcePoint" />
            <mxPoint x="370" y="375" as="targetPoint" />
          </mxGeometry>
        </mxCell>
        <mxCell id="zyrzcdE2vxu1JpTZ-_7l-253" value="" style="shape=flexArrow;endArrow=classic;html=1;rounded=0;" parent="1" edge="1">
          <mxGeometry width="50" height="50" relative="1" as="geometry">
            <mxPoint x="330" y="380" as="sourcePoint" />
            <mxPoint x="330" y="460" as="targetPoint" />
          </mxGeometry>
        </mxCell>
        <mxCell id="eLLv7vjXWubEott9db2J-1" value="&lt;font style=&quot;font-size: 12px;&quot;&gt;User&lt;/font&gt;" style="ellipse;whiteSpace=wrap;html=1;" vertex="1" parent="1">
          <mxGeometry x="990" y="252" width="120" height="80" as="geometry" />
        </mxCell>
        <mxCell id="eLLv7vjXWubEott9db2J-3" value="" style="shape=flexArrow;endArrow=classic;html=1;rounded=0;" edge="1" parent="1">
          <mxGeometry width="50" height="50" relative="1" as="geometry">
            <mxPoint x="880" y="280" as="sourcePoint" />
            <mxPoint x="980" y="280" as="targetPoint" />
          </mxGeometry>
        </mxCell>
        <mxCell id="eLLv7vjXWubEott9db2J-4" value="&lt;font style=&quot;font-size: 9px;&quot;&gt;The user sends a &lt;br&gt;command to the bot.&lt;/font&gt;" style="text;html=1;align=center;verticalAlign=middle;resizable=0;points=[];autosize=1;strokeColor=none;fillColor=none;" vertex="1" parent="1">
          <mxGeometry x="883" y="319" width="110" height="40" as="geometry" />
        </mxCell>
        <mxCell id="eLLv7vjXWubEott9db2J-5" value="" style="shape=flexArrow;endArrow=classic;html=1;rounded=0;" edge="1" parent="1">
          <mxGeometry width="50" height="50" relative="1" as="geometry">
            <mxPoint x="980" y="320" as="sourcePoint" />
            <mxPoint x="880" y="320" as="targetPoint" />
          </mxGeometry>
        </mxCell>
        <mxCell id="eLLv7vjXWubEott9db2J-6" value="&lt;font style=&quot;font-size: 9px;&quot;&gt;The user gets a&lt;br&gt;&amp;nbsp;response from the bot&lt;/font&gt;" style="text;html=1;align=center;verticalAlign=middle;resizable=0;points=[];autosize=1;strokeColor=none;fillColor=none;" vertex="1" parent="1">
          <mxGeometry x="858" y="240" width="110" height="40" as="geometry" />
        </mxCell>
        <mxCell id="eLLv7vjXWubEott9db2J-8" value="&lt;font style=&quot;font-size: 10px;&quot;&gt;DeepL Translator&lt;br&gt;API&lt;/font&gt;" style="text;html=1;align=center;verticalAlign=middle;resizable=0;points=[];autosize=1;strokeColor=none;fillColor=none;" vertex="1" parent="1">
          <mxGeometry x="872" y="421" width="100" height="40" as="geometry" />
        </mxCell>
      </root>
    </mxGraphModel>
  </diagram>
</mxfile>
